<mxfile host="app.diagrams.net" modified="2020-09-11T05:55:34.701Z" agent="5.0 (Windows NT 10.0; WOW64) AppleWebKit/537.36 (KHTML, like Gecko) Chrome/74.0.3729.40 Safari/537.36" etag="siEn1YJas2_BbnZV5DsY" version="13.6.9" type="github">
  <diagram id="mjwhtsM7jmIFnL8jzsFZ" name="Page-1">
    <mxGraphModel dx="1024" dy="1732" grid="1" gridSize="10" guides="1" tooltips="1" connect="1" arrows="1" fold="1" page="1" pageScale="1" pageWidth="827" pageHeight="1169" math="0" shadow="0">
      <root>
        <mxCell id="0" />
        <mxCell id="1" parent="0" />
        <mxCell id="27NsoutEpngbTcqVYeVh-1" value="" style="whiteSpace=wrap;html=1;aspect=fixed;" vertex="1" parent="1">
          <mxGeometry x="90" y="-20" width="510" height="510" as="geometry" />
        </mxCell>
        <mxCell id="27NsoutEpngbTcqVYeVh-2" value="" style="whiteSpace=wrap;html=1;aspect=fixed;" vertex="1" parent="1">
          <mxGeometry x="150" y="40" width="20" height="20" as="geometry" />
        </mxCell>
        <mxCell id="27NsoutEpngbTcqVYeVh-7" value="" style="verticalLabelPosition=bottom;verticalAlign=top;html=1;shape=mxgraph.basic.tick" vertex="1" parent="1">
          <mxGeometry x="150" y="40" width="20" height="20" as="geometry" />
        </mxCell>
        <mxCell id="27NsoutEpngbTcqVYeVh-8" value="" style="whiteSpace=wrap;html=1;aspect=fixed;" vertex="1" parent="1">
          <mxGeometry x="140" y="140" width="20" height="20" as="geometry" />
        </mxCell>
        <mxCell id="27NsoutEpngbTcqVYeVh-9" value="" style="verticalLabelPosition=bottom;verticalAlign=top;html=1;shape=mxgraph.basic.tick" vertex="1" parent="1">
          <mxGeometry x="140" y="140" width="20" height="20" as="geometry" />
        </mxCell>
        <mxCell id="27NsoutEpngbTcqVYeVh-17" value="CS Opertate" style="text;html=1;strokeColor=none;fillColor=none;align=center;verticalAlign=middle;whiteSpace=wrap;rounded=0;" vertex="1" parent="1">
          <mxGeometry x="210" y="40" width="70" height="20" as="geometry" />
        </mxCell>
        <mxCell id="27NsoutEpngbTcqVYeVh-19" value="CS Admin" style="text;html=1;strokeColor=none;fillColor=none;align=center;verticalAlign=middle;whiteSpace=wrap;rounded=0;" vertex="1" parent="1">
          <mxGeometry x="210" y="140" width="70" height="20" as="geometry" />
        </mxCell>
        <mxCell id="27NsoutEpngbTcqVYeVh-21" value="" style="whiteSpace=wrap;html=1;aspect=fixed;" vertex="1" parent="1">
          <mxGeometry x="140" y="280" width="20" height="20" as="geometry" />
        </mxCell>
        <mxCell id="27NsoutEpngbTcqVYeVh-23" value="" style="whiteSpace=wrap;html=1;aspect=fixed;" vertex="1" parent="1">
          <mxGeometry x="140" y="380" width="20" height="20" as="geometry" />
        </mxCell>
        <mxCell id="27NsoutEpngbTcqVYeVh-24" value="Fibbbbabce OP" style="text;html=1;strokeColor=none;fillColor=none;align=center;verticalAlign=middle;whiteSpace=wrap;rounded=0;" vertex="1" parent="1">
          <mxGeometry x="210" y="280" width="90" height="20" as="geometry" />
        </mxCell>
        <mxCell id="27NsoutEpngbTcqVYeVh-27" value="Finance Admin" style="text;html=1;strokeColor=none;fillColor=none;align=center;verticalAlign=middle;whiteSpace=wrap;rounded=0;" vertex="1" parent="1">
          <mxGeometry x="210" y="380" width="100" height="20" as="geometry" />
        </mxCell>
        <mxCell id="27NsoutEpngbTcqVYeVh-28" value="" style="whiteSpace=wrap;html=1;aspect=fixed;" vertex="1" parent="1">
          <mxGeometry x="360" y="20" width="20" height="20" as="geometry" />
        </mxCell>
        <mxCell id="27NsoutEpngbTcqVYeVh-29" value="" style="whiteSpace=wrap;html=1;aspect=fixed;" vertex="1" parent="1">
          <mxGeometry x="360" y="50" width="20" height="20" as="geometry" />
        </mxCell>
        <mxCell id="27NsoutEpngbTcqVYeVh-30" value="" style="whiteSpace=wrap;html=1;aspect=fixed;" vertex="1" parent="1">
          <mxGeometry x="360" y="80" width="20" height="20" as="geometry" />
        </mxCell>
        <mxCell id="27NsoutEpngbTcqVYeVh-37" value="" style="verticalLabelPosition=bottom;verticalAlign=top;html=1;shape=mxgraph.basic.tick" vertex="1" parent="1">
          <mxGeometry x="360" y="20" width="20" height="20" as="geometry" />
        </mxCell>
        <mxCell id="27NsoutEpngbTcqVYeVh-40" value="view" style="text;html=1;strokeColor=none;fillColor=none;align=center;verticalAlign=middle;whiteSpace=wrap;rounded=0;" vertex="1" parent="1">
          <mxGeometry x="414" y="20" width="76" height="20" as="geometry" />
        </mxCell>
        <mxCell id="27NsoutEpngbTcqVYeVh-41" value="edit" style="text;html=1;strokeColor=none;fillColor=none;align=center;verticalAlign=middle;whiteSpace=wrap;rounded=0;" vertex="1" parent="1">
          <mxGeometry x="432" y="50" width="40" height="20" as="geometry" />
        </mxCell>
        <mxCell id="27NsoutEpngbTcqVYeVh-42" value="admin" style="text;html=1;strokeColor=none;fillColor=none;align=center;verticalAlign=middle;whiteSpace=wrap;rounded=0;" vertex="1" parent="1">
          <mxGeometry x="432" y="90" width="40" height="20" as="geometry" />
        </mxCell>
        <mxCell id="27NsoutEpngbTcqVYeVh-43" value="" style="whiteSpace=wrap;html=1;aspect=fixed;" vertex="1" parent="1">
          <mxGeometry x="360" y="120" width="20" height="20" as="geometry" />
        </mxCell>
        <mxCell id="27NsoutEpngbTcqVYeVh-44" value="" style="verticalLabelPosition=bottom;verticalAlign=top;html=1;shape=mxgraph.basic.tick" vertex="1" parent="1">
          <mxGeometry x="360" y="120" width="20" height="20" as="geometry" />
        </mxCell>
        <mxCell id="27NsoutEpngbTcqVYeVh-47" value="" style="whiteSpace=wrap;html=1;aspect=fixed;" vertex="1" parent="1">
          <mxGeometry x="360" y="150" width="20" height="20" as="geometry" />
        </mxCell>
        <mxCell id="27NsoutEpngbTcqVYeVh-50" value="" style="whiteSpace=wrap;html=1;aspect=fixed;" vertex="1" parent="1">
          <mxGeometry x="360" y="180" width="20" height="20" as="geometry" />
        </mxCell>
        <mxCell id="27NsoutEpngbTcqVYeVh-51" value="" style="whiteSpace=wrap;html=1;aspect=fixed;" vertex="1" parent="1">
          <mxGeometry x="360" y="210" width="20" height="20" as="geometry" />
        </mxCell>
        <mxCell id="27NsoutEpngbTcqVYeVh-53" value="" style="whiteSpace=wrap;html=1;aspect=fixed;" vertex="1" parent="1">
          <mxGeometry x="350" y="270" width="20" height="20" as="geometry" />
        </mxCell>
        <mxCell id="27NsoutEpngbTcqVYeVh-54" value="" style="whiteSpace=wrap;html=1;aspect=fixed;" vertex="1" parent="1">
          <mxGeometry x="350" y="300" width="20" height="20" as="geometry" />
        </mxCell>
        <mxCell id="27NsoutEpngbTcqVYeVh-55" value="" style="whiteSpace=wrap;html=1;aspect=fixed;" vertex="1" parent="1">
          <mxGeometry x="350" y="330" width="20" height="20" as="geometry" />
        </mxCell>
        <mxCell id="27NsoutEpngbTcqVYeVh-56" value="" style="whiteSpace=wrap;html=1;aspect=fixed;" vertex="1" parent="1">
          <mxGeometry x="350" y="440" width="20" height="20" as="geometry" />
        </mxCell>
        <mxCell id="27NsoutEpngbTcqVYeVh-57" value="" style="whiteSpace=wrap;html=1;aspect=fixed;" vertex="1" parent="1">
          <mxGeometry x="350" y="370" width="20" height="20" as="geometry" />
        </mxCell>
        <mxCell id="27NsoutEpngbTcqVYeVh-58" value="" style="whiteSpace=wrap;html=1;aspect=fixed;" vertex="1" parent="1">
          <mxGeometry x="350" y="410" width="20" height="20" as="geometry" />
        </mxCell>
        <mxCell id="27NsoutEpngbTcqVYeVh-76" value="view" style="text;html=1;strokeColor=none;fillColor=none;align=center;verticalAlign=middle;whiteSpace=wrap;rounded=0;" vertex="1" parent="1">
          <mxGeometry x="432" y="120" width="40" height="20" as="geometry" />
        </mxCell>
        <mxCell id="27NsoutEpngbTcqVYeVh-77" value="edit" style="text;html=1;strokeColor=none;fillColor=none;align=center;verticalAlign=middle;whiteSpace=wrap;rounded=0;" vertex="1" parent="1">
          <mxGeometry x="432" y="150" width="40" height="20" as="geometry" />
        </mxCell>
        <mxCell id="27NsoutEpngbTcqVYeVh-78" value="admin" style="text;html=1;strokeColor=none;fillColor=none;align=center;verticalAlign=middle;whiteSpace=wrap;rounded=0;" vertex="1" parent="1">
          <mxGeometry x="432" y="180" width="40" height="20" as="geometry" />
        </mxCell>
        <mxCell id="27NsoutEpngbTcqVYeVh-79" value="upload" style="text;html=1;strokeColor=none;fillColor=none;align=center;verticalAlign=middle;whiteSpace=wrap;rounded=0;" vertex="1" parent="1">
          <mxGeometry x="432" y="210" width="40" height="20" as="geometry" />
        </mxCell>
        <mxCell id="27NsoutEpngbTcqVYeVh-80" value="view" style="text;html=1;strokeColor=none;fillColor=none;align=center;verticalAlign=middle;whiteSpace=wrap;rounded=0;" vertex="1" parent="1">
          <mxGeometry x="430" y="270" width="40" height="20" as="geometry" />
        </mxCell>
        <mxCell id="27NsoutEpngbTcqVYeVh-81" value="edit" style="text;html=1;strokeColor=none;fillColor=none;align=center;verticalAlign=middle;whiteSpace=wrap;rounded=0;" vertex="1" parent="1">
          <mxGeometry x="432" y="300" width="40" height="20" as="geometry" />
        </mxCell>
        <mxCell id="27NsoutEpngbTcqVYeVh-82" value="admin" style="text;html=1;strokeColor=none;fillColor=none;align=center;verticalAlign=middle;whiteSpace=wrap;rounded=0;" vertex="1" parent="1">
          <mxGeometry x="432" y="330" width="40" height="20" as="geometry" />
        </mxCell>
        <mxCell id="27NsoutEpngbTcqVYeVh-83" value="view" style="text;html=1;strokeColor=none;fillColor=none;align=center;verticalAlign=middle;whiteSpace=wrap;rounded=0;" vertex="1" parent="1">
          <mxGeometry x="432" y="370" width="40" height="20" as="geometry" />
        </mxCell>
        <mxCell id="27NsoutEpngbTcqVYeVh-84" value="edit" style="text;html=1;strokeColor=none;fillColor=none;align=center;verticalAlign=middle;whiteSpace=wrap;rounded=0;" vertex="1" parent="1">
          <mxGeometry x="432" y="410" width="40" height="20" as="geometry" />
        </mxCell>
        <mxCell id="27NsoutEpngbTcqVYeVh-85" value="admin" style="text;html=1;strokeColor=none;fillColor=none;align=center;verticalAlign=middle;whiteSpace=wrap;rounded=0;" vertex="1" parent="1">
          <mxGeometry x="432" y="450" width="40" height="20" as="geometry" />
        </mxCell>
      </root>
    </mxGraphModel>
  </diagram>
</mxfile>
